<svg width="19" height="20" viewBox="0 0 19 20" fill="none" xmlns="http://www.w3.org/2000/svg">
<path d="M1.40625 18.1927V8.65626H1.20625C0.900695 8.65626 0.644097 8.55209 0.436458 8.34376C0.228819 8.1382 0.125 7.8823 0.125 7.57605V5.13126C0.125 4.8257 0.228819 4.56876 0.436458 4.36042C0.644792 4.15348 0.901736 4.05001 1.20729 4.05001H5.48125C5.27431 3.86667 5.13125 3.64966 5.05208 3.39897C4.97222 3.14758 4.93229 2.88369 4.93229 2.6073C4.93229 1.91702 5.17396 1.33056 5.65729 0.847925C6.13993 0.364591 6.72639 0.122925 7.41667 0.122925C7.81597 0.122925 8.18264 0.216675 8.51667 0.404175C8.85069 0.591675 9.13854 0.836119 9.38021 1.13751C9.62187 0.832647 9.90938 0.587508 10.2427 0.402091C10.5767 0.21598 10.9434 0.122925 11.3427 0.122925C12.033 0.122925 12.6198 0.364591 13.1031 0.847925C13.5858 1.33056 13.8271 1.91737 13.8271 2.60834C13.8271 2.87917 13.7865 3.14029 13.7052 3.39167C13.6233 3.64306 13.4809 3.86251 13.2781 4.05001H17.7937C18.0993 4.05001 18.3559 4.15383 18.5635 4.36147C18.7712 4.56911 18.875 4.82605 18.875 5.1323V7.57501C18.875 7.88056 18.7712 8.13751 18.5635 8.34584C18.3552 8.55348 18.0983 8.6573 17.7927 8.6573H17.5927V18.1927C17.5927 18.6552 17.4281 19.051 17.099 19.3802C16.7691 19.7101 16.3729 19.875 15.9104 19.875H3.08958C2.62708 19.875 2.23125 19.7101 1.90208 19.3802C1.57222 19.051 1.40625 18.6552 1.40625 18.1927ZM11.3427 1.16459C10.9344 1.16459 10.592 1.30313 10.3156 1.58022C10.0392 1.85661 9.90104 2.19897 9.90104 2.6073C9.90104 3.01633 10.0392 3.35904 10.3156 3.63542C10.592 3.91181 10.9344 4.05001 11.3427 4.05001C11.7517 4.05001 12.0944 3.91181 12.3708 3.63542C12.6472 3.35904 12.7854 3.01633 12.7854 2.6073C12.7854 2.19897 12.6472 1.85661 12.3708 1.58022C12.0944 1.30313 11.7517 1.16459 11.3427 1.16459ZM5.97396 2.6073C5.97396 3.01633 6.11215 3.35904 6.38854 3.63542C6.66562 3.91181 7.00833 4.05001 7.41667 4.05001C7.825 4.05001 8.16771 3.91181 8.44479 3.63542C8.72118 3.35904 8.85938 3.01633 8.85938 2.6073C8.85938 2.19897 8.72118 1.85661 8.44479 1.58022C8.16771 1.30313 7.825 1.16459 7.41667 1.16459C7.00833 1.16459 6.66562 1.30313 6.38854 1.58022C6.11215 1.85661 5.97396 2.19897 5.97396 2.6073ZM1.16667 5.09167V7.61459H8.97917V5.09167H1.16667ZM8.97917 18.8333V8.65626H2.44792V18.1927C2.44792 18.3795 2.50833 18.533 2.62917 18.6531C2.75 18.7733 2.90347 18.8333 3.08958 18.8333H8.97917ZM10.0208 18.8333H15.9104C16.0979 18.8333 16.2514 18.7733 16.3708 18.6531C16.4903 18.533 16.5503 18.3795 16.551 18.1927V8.65626H10.0208V18.8333ZM17.8333 7.61459V5.09272H10.0208V7.61459H17.8333Z" fill="#015B93"/>
</svg>
