<svg width="19" height="25" viewBox="0 0 19 25" fill="none" xmlns="http://www.w3.org/2000/svg">
<path d="M11.5833 20.8333V23.4375M7.41667 20.8333V23.4375M11.5833 4.16667V1.5625M7.41667 4.16667V1.5625M4.29167 12.5H1.6875M17.3125 12.5H14.7083M4.29167 6.77083H1.6875M17.3125 6.77083H14.7083M4.29167 18.2292H1.6875M17.3125 18.2292H14.7083M4.29167 20.2083V4.79167C4.29167 4.62591 4.35751 4.46694 4.47472 4.34972C4.59194 4.23251 4.75091 4.16667 4.91667 4.16667H14.0833C14.1654 4.16667 14.2467 4.18283 14.3225 4.21424C14.3983 4.24565 14.4672 4.29169 14.5253 4.34972C14.5833 4.40776 14.6293 4.47666 14.6608 4.55249C14.6922 4.62832 14.7083 4.70959 14.7083 4.79167V20.2083C14.7083 20.2904 14.6922 20.3717 14.6608 20.4475C14.6293 20.5233 14.5833 20.5922 14.5253 20.6503C14.4672 20.7083 14.3983 20.7543 14.3225 20.7858C14.2467 20.8172 14.1654 20.8333 14.0833 20.8333H4.91667C4.75091 20.8333 4.59194 20.7675 4.47472 20.6503C4.35751 20.5331 4.29167 20.3741 4.29167 20.2083Z" stroke="#015B93" stroke-width="1.5625" stroke-linecap="round" stroke-linejoin="round"/>
</svg>
