<svg width="23" height="18" viewBox="0 0 23 18" fill="none" xmlns="http://www.w3.org/2000/svg">
<path d="M22.6801 3.375C22.7201 3.52 22.6696 3.68 22.5851 3.805L19.8901 7.815C19.7901 7.97 19.5801 8.055 19.4046 8.055C19.3546 8.055 19.2146 8.045 19.1601 8.03L17.0001 7.5V17C17.0001 17.29 16.7951 17.5 16.5001 17.5H6.00007C5.70507 17.5 5.50007 17.29 5.50007 17V7.5L3.56007 8.035C3.33507 8.105 3.14007 8.015 3.01507 7.82L0.340075 3.82C0.255075 3.69 0.230075 3.545 0.270075 3.4C0.305075 3.25 0.410075 3.15 0.545075 3.08L6.00007 0.5H8.50007C8.79507 0.5 9.00007 0.705 9.00007 1C9.00007 2.03 10.4451 2.76 11.4751 2.76C12.5051 2.76 14.0001 2.035 14.0001 1C14.0001 0.71 14.2051 0.5 14.5001 0.5H17.0001L22.4001 3.03C22.5401 3.1 22.6401 3.225 22.6801 3.375Z" fill="#015B93"/>
</svg>
