<svg width="11" height="20" viewBox="0 0 11 20" fill="none" xmlns="http://www.w3.org/2000/svg">
<path d="M7.22596 12.3625L4.27909 15.3094M10.1718 12.3625C9.97961 12.5615 9.74973 12.7202 9.49555 12.8294C9.24138 12.9386 8.968 12.9961 8.69138 12.9985C8.41476 13.0009 8.14042 12.9482 7.88439 12.8434C7.62836 12.7386 7.39575 12.584 7.20014 12.3883C7.00453 12.1927 6.84983 11.9601 6.74508 11.7041C6.64033 11.4481 6.58762 11.1737 6.59002 10.8971C6.59243 10.6205 6.6499 10.3471 6.75908 10.0929C6.86827 9.83875 7.02698 9.60887 7.22596 9.41669M4.27909 18.2552C4.65858 17.8623 4.86857 17.3361 4.86382 16.7898C4.85908 16.2436 4.63997 15.721 4.25371 15.3348C3.86744 14.9485 3.34491 14.7294 2.79867 14.7247C2.25243 14.7199 1.72617 14.9299 1.33325 15.3094M1.85409 1.60419L5.49992 5.25002L9.14575 1.60419" stroke="#015B93" stroke-width="1.5625" stroke-linecap="round" stroke-linejoin="round"/>
</svg>
